# xmcd CD database file
#
# Track frame offsets:
#	150
#	24951
#	50409
#	73847
#	100288
#	126525
#	155205
#	171072
#	200736
#	226261
#
# Disc length: 3281 seconds
#
# Revision: 1
# Processed by: cddbd v1.5.1PL0 Copyright (c) Steve Scherf et al.
# Submitted via: CDex 1.51
#
DISCID=8e0ccf0a
DTITLE=Tad Williams - Otherland - Stadt der goldenen Schatten
DYEAR=2004
DGENRE=Hörspiel
TTITLE0=Kapitel 36
TTITLE1=Kapitel 37
TTITLE2=Kapitel 38
TTITLE3=Kapitel 39
TTITLE4=Kapitel 40
TTITLE5=Kapitel 41
TTITLE6=Kapitel 42
TTITLE7=Kapitel 43
TTITLE8=Kapitel 44
TTITLE9=Kapitel 45
EXTD=YEAR: 2004
EXTT0=
EXTT1=
EXTT2=
EXTT3=
EXTT4=
EXTT5=
EXTT6=
EXTT7=
EXTT8=
EXTT9=
PLAYORDER=
